<?xml version="1.0" encoding="UTF-8"?>
<!DOCTYPE svg PUBLIC "-//W3C//DTD SVG 1.1//EN" "http://www.w3.org/Graphics/SVG/1.1/DTD/svg11.dtd">
<svg xmlns="http://www.w3.org/2000/svg" version="1.1" width="394px" height="469px" style="shape-rendering:geometricPrecision; text-rendering:geometricPrecision; image-rendering:optimizeQuality; fill-rule:evenodd; clip-rule:evenodd" xmlns:xlink="http://www.w3.org/1999/xlink">
<g><path style="opacity:0.986" fill="#8c2970" d="M 289.5,56.5 C 286.667,58.4779 283.667,60.3112 280.5,62C 279.207,62.49 277.873,62.6567 276.5,62.5C 270.046,62.44 264.712,59.94 260.5,55C 255.932,52.5482 251.265,50.3815 246.5,48.5C 230.075,41.1944 212.742,37.8611 194.5,38.5C 177.51,37.7704 161.51,41.1038 146.5,48.5C 138.409,51.3776 131.075,55.5443 124.5,61C 121.937,62.0793 119.271,62.5793 116.5,62.5C 113.426,62.1274 110.426,61.4608 107.5,60.5C 98.9161,50.1343 99.9161,40.6343 110.5,32C 148.271,8.81545 188.937,1.81545 232.5,11C 250.27,15.4758 266.937,22.4758 282.5,32C 290.827,38.4794 293.161,46.6461 289.5,56.5 Z"/></g>
<g><path style="opacity:0.974" fill="#af3c75" d="M 101.5,65.5 C 106.486,83.2582 102.486,98.5916 89.5,111.5C 82.3119,117.79 73.9786,121.79 64.5,123.5C 61.1214,123.692 57.788,123.692 54.5,123.5C 47.0985,122.386 40.2652,119.719 34,115.5C 33.6012,115.728 33.4346,116.062 33.5,116.5C 11.4716,97.8541 7.97158,76.1875 23,51.5C 41.0275,32.548 61.5275,29.3813 84.5,42C 93.2495,47.6891 98.9162,55.5224 101.5,65.5 Z"/></g>
<g><path style="opacity:0.977" fill="#af3c75" d="M 359.5,116.5 C 359.44,115.957 359.107,115.624 358.5,115.5C 352.369,119.543 345.702,122.21 338.5,123.5C 335.897,123.459 333.23,123.793 330.5,124.5C 329.791,123.596 328.791,123.263 327.5,123.5C 323.921,122.475 320.254,121.309 316.5,120C 312.112,117.477 307.778,114.977 303.5,112.5C 289.123,96.9462 285.79,79.2795 293.5,59.5C 304.114,40.222 320.447,32.0553 342.5,35C 372.093,43.6719 383.593,63.1719 377,93.5C 373.634,103.034 367.8,110.701 359.5,116.5 Z"/></g>
<g><path style="opacity:1" fill="#000000" d="M 246.5,48.5 C 248.81,92.9811 238.81,134.314 216.5,172.5C 209.562,174.485 202.562,176.318 195.5,178C 193.167,178.667 190.833,178.667 188.5,178C 196.538,169.63 204.205,160.964 211.5,152C 211.167,151.833 210.833,151.667 210.5,151.5C 199.036,158.566 187.036,164.566 174.5,169.5C 153.69,131.921 144.357,91.588 146.5,48.5C 161.51,41.1038 177.51,37.7704 194.5,38.5C 212.742,37.8611 230.075,41.1944 246.5,48.5 Z"/></g>
<g><path style="opacity:1" fill="#57b499" d="M 146.5,48.5 C 144.357,91.588 153.69,131.921 174.5,169.5C 177.088,173.674 179.421,178.007 181.5,182.5C 168.899,177.796 155.899,175.13 142.5,174.5C 125.281,139.21 116.615,101.877 116.5,62.5C 119.271,62.5793 121.937,62.0793 124.5,61C 131.075,55.5443 138.409,51.3776 146.5,48.5 Z"/></g>
<g><path style="opacity:1" fill="#57b499" d="M 246.5,48.5 C 251.265,50.3815 255.932,52.5482 260.5,55C 264.712,59.94 270.046,62.44 276.5,62.5C 276.737,95.0892 270.737,126.423 258.5,156.5C 255.554,162.724 252.887,169.058 250.5,175.5C 236.939,174.808 223.939,177.142 211.5,182.5C 213.18,179.14 214.847,175.807 216.5,172.5C 238.81,134.314 248.81,92.9811 246.5,48.5 Z"/></g>
<g><path style="opacity:1" fill="#f37fb9" d="M 53.5,50.5 C 70.5887,49.6222 81.7554,57.2889 87,73.5C 87.6697,97.1633 76.1697,108.33 52.5,107C 36.0878,101.355 28.9212,89.8549 31,72.5C 35.1086,61.5566 42.6086,54.2232 53.5,50.5 Z"/></g>
<g><path style="opacity:1" fill="#f37fb9" d="M 329.5,50.5 C 345.654,49.9923 356.487,57.3256 362,72.5C 363.167,96.6667 351.667,108.167 327.5,107C 311.902,101.315 304.735,90.1486 306,73.5C 309.787,61.5443 317.621,53.8776 329.5,50.5 Z"/></g>
<g><path style="opacity:0.998" fill="#020303" d="M 289.5,56.5 C 290.262,58.2624 291.596,59.2624 293.5,59.5C 285.79,79.2795 289.123,96.9462 303.5,112.5C 302.388,133.184 301.054,153.851 299.5,174.5C 298.833,167.167 298.167,159.833 297.5,152.5C 298.181,146.955 296.014,143.288 291,141.5C 280.067,146.385 269.233,151.385 258.5,156.5C 270.737,126.423 276.737,95.0892 276.5,62.5C 277.873,62.6567 279.207,62.49 280.5,62C 283.667,60.3112 286.667,58.4779 289.5,56.5 Z"/></g>
<g><path style="opacity:0.999" fill="#010101" d="M 107.5,60.5 C 110.426,61.4608 113.426,62.1274 116.5,62.5C 116.615,101.877 125.281,139.21 142.5,174.5C 125.538,175.321 110.038,180.655 96,190.5C 95.7679,189.263 95.2679,188.263 94.5,187.5C 92.8333,162.166 91.1666,136.833 89.5,111.5C 102.486,98.5916 106.486,83.2582 101.5,65.5C 103.5,63.8333 105.5,62.1667 107.5,60.5 Z"/></g>
<g><path style="opacity:1" fill="#afebd5" d="M 89.5,111.5 C 91.1666,136.833 92.8333,162.166 94.5,187.5C 94.7852,189.288 94.4519,190.955 93.5,192.5C 85.3124,199.521 78.8124,207.854 74,217.5C 73.8213,213.975 73.3213,210.641 72.5,207.5C 70.5951,181.104 68.2617,154.771 65.5,128.5C 64.962,126.883 64.6287,125.216 64.5,123.5C 73.9786,121.79 82.3119,117.79 89.5,111.5 Z"/></g>
<g><path style="opacity:1" fill="#b0ecd6" d="M 303.5,112.5 C 307.778,114.977 312.112,117.477 316.5,120C 320.254,121.309 323.921,122.475 327.5,123.5C 324.893,151.816 322.56,180.149 320.5,208.5C 319.681,211.305 319.181,214.305 319,217.5C 313.823,207.453 306.989,198.786 298.5,191.5C 298.5,190.167 298.5,188.833 298.5,187.5C 298.467,183.131 298.8,178.798 299.5,174.5C 301.054,153.851 302.388,133.184 303.5,112.5 Z"/></g>
<g><path style="opacity:0.994" fill="#80ddbb" d="M 54.5,123.5 C 55.459,135.212 56.7923,146.879 58.5,158.5C 61.8326,181.497 65.1659,204.497 68.5,227.5C 68.5,228.5 68.5,229.5 68.5,230.5C 63.2766,232.473 57.9433,234.14 52.5,235.5C 52.2041,233.597 51.5375,231.93 50.5,230.5C 49.4223,223.445 48.089,216.445 46.5,209.5C 47.3032,205.683 46.6366,202.016 44.5,198.5C 40.2726,171.242 36.6059,143.908 33.5,116.5C 33.4346,116.062 33.6012,115.728 34,115.5C 40.2652,119.719 47.0985,122.386 54.5,123.5 Z"/></g>
<g><path style="opacity:0.993" fill="#80dcbb" d="M 359.5,116.5 C 356.142,146.979 351.809,177.313 346.5,207.5C 344.393,216.696 342.393,226.029 340.5,235.5C 334.879,234.434 329.546,232.767 324.5,230.5C 324.5,229.167 324.5,227.833 324.5,226.5C 328.412,201.538 332.079,176.538 335.5,151.5C 336.793,142.2 337.793,132.867 338.5,123.5C 345.702,122.21 352.369,119.543 358.5,115.5C 359.107,115.624 359.44,115.957 359.5,116.5 Z"/></g>
<g><path style="opacity:0.971" fill="#060807" d="M 327.5,123.5 C 328.791,123.263 329.791,123.596 330.5,124.5C 332.065,133.648 333.731,142.648 335.5,151.5C 332.079,176.538 328.412,201.538 324.5,226.5C 323.883,226.611 323.383,226.944 323,227.5C 320.822,221.364 319.988,215.031 320.5,208.5C 322.56,180.149 324.893,151.816 327.5,123.5 Z"/></g>
<g><path style="opacity:0.965" fill="#050807" d="M 65.5,128.5 C 68.2617,154.771 70.5951,181.104 72.5,207.5C 72.6658,212.179 72.4992,216.845 72,221.5C 71.647,224.152 70.4803,226.152 68.5,227.5C 65.1659,204.497 61.8326,181.497 58.5,158.5C 60.1908,148.358 62.5241,138.358 65.5,128.5 Z"/></g>
<g><path style="opacity:1" fill="#cfd0d0" d="M 297.5,152.5 C 297.172,164.345 297.505,176.012 298.5,187.5C 298.5,188.833 298.5,190.167 298.5,191.5C 284.235,181.26 268.235,175.927 250.5,175.5C 252.887,169.058 255.554,162.724 258.5,156.5C 269.233,151.385 280.067,146.385 291,141.5C 296.014,143.288 298.181,146.955 297.5,152.5 Z"/></g>
<g><path style="opacity:1" fill="#cbcccb" d="M 216.5,172.5 C 214.847,175.807 213.18,179.14 211.5,182.5C 206.357,185.575 201.357,188.908 196.5,192.5C 191.482,189.141 186.482,185.807 181.5,182.5C 179.421,178.007 177.088,173.674 174.5,169.5C 187.036,164.566 199.036,158.566 210.5,151.5C 210.833,151.667 211.167,151.833 211.5,152C 204.205,160.964 196.538,169.63 188.5,178C 190.833,178.667 193.167,178.667 195.5,178C 202.562,176.318 209.562,174.485 216.5,172.5 Z"/></g>
<g><path style="opacity:1" fill="#808583" d="M 297.5,152.5 C 298.167,159.833 298.833,167.167 299.5,174.5C 298.8,178.798 298.467,183.131 298.5,187.5C 297.505,176.012 297.172,164.345 297.5,152.5 Z"/></g>
<g><path style="opacity:1" fill="#2e7f80" d="M 142.5,174.5 C 155.899,175.13 168.899,177.796 181.5,182.5C 186.482,185.807 191.482,189.141 196.5,192.5C 201.357,188.908 206.357,185.575 211.5,182.5C 223.939,177.142 236.939,174.808 250.5,175.5C 268.235,175.927 284.235,181.26 298.5,191.5C 306.989,198.786 313.823,207.453 319,217.5C 319.181,214.305 319.681,211.305 320.5,208.5C 319.988,215.031 320.822,221.364 323,227.5C 323.383,226.944 323.883,226.611 324.5,226.5C 324.5,227.833 324.5,229.167 324.5,230.5C 327.715,250.043 324.549,268.71 315,286.5C 311.346,291.982 307.179,296.982 302.5,301.5C 294.768,308.365 286.101,313.699 276.5,317.5C 270.568,318.863 264.568,320.029 258.5,321C 248.626,333.138 236.626,336.304 222.5,330.5C 228.018,325.497 230.685,319.163 230.5,311.5C 257.067,322.401 280.234,317.401 300,296.5C 310.285,283.024 314.119,268.024 311.5,251.5C 310.384,223.447 296.384,205.28 269.5,197C 240.234,192.294 219.068,203.128 206,229.5C 199.553,249.655 201.886,268.655 213,286.5C 216.371,289.703 219.538,293.036 222.5,296.5C 220.5,298.167 218.5,299.833 216.5,301.5C 207.298,294.632 201.298,285.632 198.5,274.5C 197.167,274.5 195.833,274.5 194.5,274.5C 191.702,285.632 185.702,294.632 176.5,301.5C 174.5,299.833 172.5,298.167 170.5,296.5C 190.07,277.814 195.57,255.481 187,229.5C 173.643,202.914 152.143,192.081 122.5,197C 96.3443,205.825 82.6777,223.992 81.5,251.5C 78.1195,278.571 88.4529,298.737 112.5,312C 128.942,319.443 145.275,319.276 161.5,311.5C 162.978,315.71 164.144,320.043 165,324.5C 167.04,326.37 168.873,328.37 170.5,330.5C 165.476,331.673 160.476,333.006 155.5,334.5C 147.179,332.009 140.179,327.509 134.5,321C 128.391,320.248 122.391,319.081 116.5,317.5C 106.932,313.712 98.2649,308.378 90.5,301.5C 71.6509,282.949 64.6509,260.616 69.5,234.5C 69.4892,232.955 69.1558,231.622 68.5,230.5C 68.5,229.5 68.5,228.5 68.5,227.5C 70.4803,226.152 71.647,224.152 72,221.5C 72.4992,216.845 72.6658,212.179 72.5,207.5C 73.3213,210.641 73.8213,213.975 74,217.5C 78.8124,207.854 85.3124,199.521 93.5,192.5C 94.4519,190.955 94.7852,189.288 94.5,187.5C 95.2679,188.263 95.7679,189.263 96,190.5C 110.038,180.655 125.538,175.321 142.5,174.5 Z"/></g>
<g><path style="opacity:1" fill="#ae3c75" d="M 170.5,296.5 C 154.344,307.769 136.677,310.602 117.5,305C 94.4262,294.702 82.4262,276.869 81.5,251.5C 82.6777,223.992 96.3443,205.825 122.5,197C 152.143,192.081 173.643,202.914 187,229.5C 195.57,255.481 190.07,277.814 170.5,296.5 Z"/></g>
<g><path style="opacity:1" fill="#ae3c75" d="M 311.5,251.5 C 311.072,272.195 302.406,288.361 285.5,300C 272.719,307.115 259.052,309.448 244.5,307C 236.188,305.299 228.855,301.799 222.5,296.5C 219.538,293.036 216.371,289.703 213,286.5C 201.886,268.655 199.553,249.655 206,229.5C 219.068,203.128 240.234,192.294 269.5,197C 296.384,205.28 310.384,223.447 311.5,251.5 Z"/></g>
<g><path style="opacity:0.804" fill="#050807" d="M 44.5,198.5 C 46.6366,202.016 47.3032,205.683 46.5,209.5C 42.164,210.634 37.8307,210.634 33.5,209.5C 36.8544,205.479 40.521,201.812 44.5,198.5 Z"/></g>
<g><path style="opacity:0.878" fill="#020303" d="M 346.5,207.5 C 352.6,220.788 357.933,234.454 362.5,248.5C 360.011,248.702 357.677,248.202 355.5,247C 351.343,244.336 347.343,241.503 343.5,238.5C 342.833,237.167 341.833,236.167 340.5,235.5C 342.393,226.029 344.393,216.696 346.5,207.5 Z"/></g>
<g><path style="opacity:1" fill="#4a2757" d="M 126.5,212.5 C 153.155,209.729 170.322,221.063 178,246.5C 179.984,271.722 168.817,287.555 144.5,294C 117.996,296.677 101.496,285.177 95,259.5C 94.1743,236.172 104.674,220.505 126.5,212.5 Z"/></g>
<g><path style="opacity:1" fill="#4a2757" d="M 246.5,212.5 C 276.827,209.969 294.16,223.636 298.5,253.5C 296.638,275.526 284.971,289.026 263.5,294C 242.834,296.585 227.667,288.751 218,270.5C 210.136,242.561 219.636,223.228 246.5,212.5 Z"/></g>
<g><path style="opacity:1" fill="#57b49a" d="M 127.5,217.5 C 149.411,215.859 164.244,225.193 172,245.5C 175.522,268.288 166.356,283.122 144.5,290C 120.44,292.92 105.273,282.754 99,259.5C 98.0553,238.298 107.555,224.298 127.5,217.5 Z"/></g>
<g><path style="opacity:1" fill="#57b49a" d="M 249.5,217.5 C 272.47,215.717 287.303,225.717 294,247.5C 295.651,269.712 285.818,283.878 264.5,290C 247.837,292.673 234.67,287.173 225,273.5C 214.896,246.717 223.063,228.05 249.5,217.5 Z"/></g>
<g><path style="opacity:1" fill="#ac3c75" d="M 68.5,230.5 C 69.1558,231.622 69.4892,232.955 69.5,234.5C 64.6509,260.616 71.6509,282.949 90.5,301.5C 91.2967,305.223 92.2967,308.89 93.5,312.5C 76.2129,306.712 64.7129,295.045 59,277.5C 54.3456,264.717 51.5122,251.55 50.5,238C 51.0556,236.989 51.7222,236.156 52.5,235.5C 57.9433,234.14 63.2766,232.473 68.5,230.5 Z"/></g>
<g><path style="opacity:0.988" fill="#ad3c75" d="M 324.5,230.5 C 329.546,232.767 334.879,234.434 340.5,235.5C 341.833,236.167 342.833,237.167 343.5,238.5C 342.681,245.487 341.681,252.487 340.5,259.5C 337.601,267.018 334.768,274.685 332,282.5C 325.76,297.577 314.926,307.577 299.5,312.5C 300.703,308.89 301.703,305.223 302.5,301.5C 307.179,296.982 311.346,291.982 315,286.5C 324.549,268.71 327.715,250.043 324.5,230.5 Z"/></g>
<g><path style="opacity:0.927" fill="#020102" d="M 50.5,230.5 C 51.5375,231.93 52.2041,233.597 52.5,235.5C 51.7222,236.156 51.0556,236.989 50.5,238C 51.5122,251.55 54.3456,264.717 59,277.5C 64.7129,295.045 76.2129,306.712 93.5,312.5C 98.3616,333.583 101.695,354.916 103.5,376.5C 100.074,375.368 97.2405,373.368 95,370.5C 85.348,357.193 78.348,342.526 74,326.5C 71.4128,316.898 69.0794,307.231 67,297.5C 52.6333,307.382 36.7999,310.882 19.5,308C 25.5,303.333 31.5,298.667 37.5,294C 42.057,289.946 46.057,285.446 49.5,280.5C 46.6897,281.066 43.6897,282.233 40.5,284C 33.6342,286.155 26.6342,286.822 19.5,286C 35.9652,271.008 46.2985,252.508 50.5,230.5 Z"/></g>
<g><path style="opacity:0.958" fill="#020202" d="M 340.5,259.5 C 343.142,285.981 338.975,311.314 328,335.5C 323.473,345.852 318.306,355.852 312.5,365.5C 311.833,366.833 311.167,366.833 310.5,365.5C 309.617,362.675 308.45,360.008 307,357.5C 302.459,366.281 296.292,373.615 288.5,379.5C 287.903,379.265 287.57,378.765 287.5,378C 291.216,356.098 295.216,334.265 299.5,312.5C 314.926,307.577 325.76,297.577 332,282.5C 334.768,274.685 337.601,267.018 340.5,259.5 Z"/></g>
<g><path style="opacity:1" fill="#8b2b70" d="M 81.5,251.5 C 82.4262,276.869 94.4262,294.702 117.5,305C 136.677,310.602 154.344,307.769 170.5,296.5C 172.5,298.167 174.5,299.833 176.5,301.5C 172.067,305.584 167.067,308.918 161.5,311.5C 145.275,319.276 128.942,319.443 112.5,312C 88.4529,298.737 78.1195,278.571 81.5,251.5 Z"/></g>
<g><path style="opacity:1" fill="#8b2b70" d="M 311.5,251.5 C 314.119,268.024 310.285,283.024 300,296.5C 280.234,317.401 257.067,322.401 230.5,311.5C 225.481,308.657 220.814,305.324 216.5,301.5C 218.5,299.833 220.5,298.167 222.5,296.5C 228.855,301.799 236.188,305.299 244.5,307C 259.052,309.448 272.719,307.115 285.5,300C 302.406,288.361 311.072,272.195 311.5,251.5 Z"/></g>
<g><path style="opacity:1" fill="#fda441" d="M 216.5,301.5 C 220.814,305.324 225.481,308.657 230.5,311.5C 230.685,319.163 228.018,325.497 222.5,330.5C 213.004,341.639 208.004,354.639 207.5,369.5C 199.97,370.82 192.47,370.82 185,369.5C 184.978,354.59 180.145,341.59 170.5,330.5C 168.873,328.37 167.04,326.37 165,324.5C 164.144,320.043 162.978,315.71 161.5,311.5C 167.067,308.918 172.067,305.584 176.5,301.5C 185.702,294.632 191.702,285.632 194.5,274.5C 195.833,274.5 197.167,274.5 198.5,274.5C 201.298,285.632 207.298,294.632 216.5,301.5 Z"/></g>
<g><path style="opacity:0.972" fill="#b2eed8" d="M 90.5,301.5 C 98.2649,308.378 106.932,313.712 116.5,317.5C 117.934,322.486 119.434,327.486 121,332.5C 123.288,350.902 127.288,368.902 133,386.5C 136.01,392.53 139.51,398.196 143.5,403.5C 143.5,404.167 143.833,404.5 144.5,404.5C 144.5,405.167 144.833,405.5 145.5,405.5C 145.738,407.404 146.738,408.738 148.5,409.5C 148.5,410.167 148.833,410.5 149.5,410.5C 149.5,411.167 149.833,411.5 150.5,411.5C 150.5,412.167 150.833,412.5 151.5,412.5C 151.5,413.167 151.833,413.5 152.5,413.5C 152.5,414.167 152.833,414.5 153.5,414.5C 153.5,415.167 153.833,415.5 154.5,415.5C 154.833,416.5 155.5,417.167 156.5,417.5C 154.649,426.695 153.983,436.029 154.5,445.5C 145.473,442.295 137.64,437.295 131,430.5C 118.071,414.407 108.904,396.407 103.5,376.5C 101.695,354.916 98.3616,333.583 93.5,312.5C 92.2967,308.89 91.2967,305.223 90.5,301.5 Z"/></g>
<g><path style="opacity:0.973" fill="#b2eed8" d="M 302.5,301.5 C 301.703,305.223 300.703,308.89 299.5,312.5C 295.216,334.265 291.216,356.098 287.5,378C 287.57,378.765 287.903,379.265 288.5,379.5C 284.015,395.802 276.849,410.802 267,424.5C 259.644,434.348 250.144,441.348 238.5,445.5C 239.017,436.029 238.351,426.695 236.5,417.5C 240.898,414.105 244.564,410.105 247.5,405.5C 248.167,405.5 248.5,405.167 248.5,404.5C 249.167,404.5 249.5,404.167 249.5,403.5C 255.917,394.665 260.751,384.999 264,374.5C 267.096,360.593 269.762,346.593 272,332.5C 273.566,327.486 275.066,322.486 276.5,317.5C 286.101,313.699 294.768,308.365 302.5,301.5 Z"/></g>
<g><path style="opacity:0.997" fill="#d1d1d1" d="M 116.5,317.5 C 122.391,319.081 128.391,320.248 134.5,321C 140.179,327.509 147.179,332.009 155.5,334.5C 160.476,333.006 165.476,331.673 170.5,330.5C 180.145,341.59 184.978,354.59 185,369.5C 192.47,370.82 199.97,370.82 207.5,369.5C 208.004,354.639 213.004,341.639 222.5,330.5C 236.626,336.304 248.626,333.138 258.5,321C 264.568,320.029 270.568,318.863 276.5,317.5C 275.066,322.486 273.566,327.486 272,332.5C 269.762,346.593 267.096,360.593 264,374.5C 260.751,384.999 255.917,394.665 249.5,403.5C 248.833,403.5 248.5,403.833 248.5,404.5C 247.833,404.5 247.5,404.833 247.5,405.5C 243.5,408.833 239.833,412.5 236.5,416.5C 235.078,416.291 233.745,415.791 232.5,415C 207.827,414.167 183.16,414.334 158.5,415.5C 158.145,416.522 157.478,417.189 156.5,417.5C 155.5,417.167 154.833,416.5 154.5,415.5C 153.833,415.5 153.5,415.167 153.5,414.5C 152.833,414.5 152.5,414.167 152.5,413.5C 151.833,413.5 151.5,413.167 151.5,412.5C 150.833,412.5 150.5,412.167 150.5,411.5C 149.833,411.5 149.5,411.167 149.5,410.5C 148.833,410.5 148.5,410.167 148.5,409.5C 148.262,407.596 147.262,406.262 145.5,405.5C 144.833,405.5 144.5,405.167 144.5,404.5C 143.833,404.5 143.5,404.167 143.5,403.5C 139.51,398.196 136.01,392.53 133,386.5C 127.288,368.902 123.288,350.902 121,332.5C 119.434,327.486 117.934,322.486 116.5,317.5 Z"/></g>
<g><path style="opacity:0.987" fill="#8c2971" d="M 236.5,416.5 C 236.5,416.833 236.5,417.167 236.5,417.5C 238.351,426.695 239.017,436.029 238.5,445.5C 238.322,448.216 237.822,450.883 237,453.5C 236.481,454.516 235.647,455.182 234.5,455.5C 209.167,460.833 183.833,460.833 158.5,455.5C 157.353,455.182 156.519,454.516 156,453.5C 155.178,450.883 154.678,448.216 154.5,445.5C 153.983,436.029 154.649,426.695 156.5,417.5C 157.478,417.189 158.145,416.522 158.5,415.5C 183.16,414.334 207.827,414.167 232.5,415C 233.745,415.791 235.078,416.291 236.5,416.5 Z"/></g>
</svg>
